<svg width="24" height="24" viewBox="0 0 24 24" fill="none" xmlns="http://www.w3.org/2000/svg">
<g filter="url(#filter0_d_143_5)">
<path d="M10 0.277322C10.0976 0.395934 10.1574 0.541094 10.1717 0.694045C10.1859 0.846995 10.154 1.00071 10.08 1.13532C9.50186 2.1968 9.19993 3.38662 9.202 4.59532C9.202 8.61632 12.48 11.8723 16.52 11.8723C17.047 11.8723 17.56 11.8173 18.053 11.7123C18.2041 11.6796 18.3615 11.6921 18.5056 11.7483C18.6497 11.8045 18.774 11.9019 18.863 12.0283C18.957 12.1598 19.0049 12.3186 18.9993 12.4801C18.9937 12.6416 18.9349 12.7967 18.832 12.9213C18.0477 13.8848 17.0582 14.661 15.9358 15.1935C14.8134 15.726 13.5863 16.0013 12.344 15.9993C7.734 15.9993 4 12.2853 4 7.70932C4 4.26532 6.114 1.31132 9.124 0.0593219C9.27394 -0.00404621 9.44039 -0.0170522 9.59835 0.0222576C9.75631 0.0615674 9.89725 0.151071 10 0.277322V0.277322Z" fill="#080237"/>
<path d="M14.794 3.1473C14.8083 3.10399 14.836 3.06631 14.8729 3.0396C14.9099 3.01289 14.9544 2.99851 15 2.99851C15.0456 2.99851 15.0901 3.01289 15.1271 3.0396C15.164 3.06631 15.1917 3.10399 15.206 3.1473L15.593 4.3093C15.766 4.8273 16.172 5.2333 16.69 5.4063L17.852 5.7933C17.8953 5.80764 17.933 5.83526 17.9597 5.87224C17.9864 5.90922 18.0008 5.95368 18.0008 5.9993C18.0008 6.04491 17.9864 6.08937 17.9597 6.12635C17.933 6.16333 17.8953 6.19096 17.852 6.2053L16.69 6.5923C16.4345 6.67741 16.2024 6.82086 16.012 7.01127C15.8216 7.20168 15.6781 7.43382 15.593 7.6893L15.206 8.8513C15.1917 8.8946 15.164 8.93229 15.1271 8.959C15.0901 8.98571 15.0456 9.00008 15 9.00008C14.9544 9.00008 14.9099 8.98571 14.8729 8.959C14.836 8.93229 14.8083 8.8946 14.794 8.8513L14.407 7.6893C14.3219 7.43382 14.1784 7.20168 13.988 7.01127C13.7976 6.82086 13.5655 6.67741 13.31 6.5923L12.148 6.2053C12.1047 6.19096 12.067 6.16333 12.0403 6.12635C12.0136 6.08937 11.9992 6.04491 11.9992 5.9993C11.9992 5.95368 12.0136 5.90922 12.0403 5.87224C12.067 5.83526 12.1047 5.80764 12.148 5.7933L13.31 5.4063C13.5655 5.32118 13.7976 5.17773 13.988 4.98732C14.1784 4.79691 14.3219 4.56477 14.407 4.3093L14.794 3.1473V3.1473ZM17.863 0.0982961C17.8729 0.0698224 17.8914 0.045132 17.9159 0.0276577C17.9405 0.0101834 17.9699 0.000793457 18 0.000793457C18.0301 0.000793457 18.0595 0.0101834 18.0841 0.0276577C18.1086 0.045132 18.1271 0.0698224 18.137 0.0982961L18.395 0.872296C18.51 1.2183 18.781 1.4893 19.127 1.6043L19.901 1.8623C19.9295 1.87217 19.9542 1.89067 19.9716 1.91522C19.9891 1.93977 19.9985 1.96916 19.9985 1.9993C19.9985 2.02943 19.9891 2.05882 19.9716 2.08337C19.9542 2.10793 19.9295 2.12642 19.901 2.1363L19.127 2.3943C18.9565 2.45102 18.8015 2.54671 18.6745 2.67378C18.5474 2.80085 18.4517 2.95578 18.395 3.1263L18.137 3.9003C18.1271 3.92877 18.1086 3.95346 18.0841 3.97093C18.0595 3.98841 18.0301 3.9978 18 3.9978C17.9699 3.9978 17.9405 3.98841 17.9159 3.97093C17.8914 3.95346 17.8729 3.92877 17.863 3.9003L17.605 3.1263C17.5483 2.95578 17.4526 2.80085 17.3255 2.67378C17.1984 2.54671 17.0435 2.45102 16.873 2.3943L16.099 2.1363C16.0705 2.12642 16.0458 2.10793 16.0284 2.08337C16.0109 2.05882 16.0015 2.02943 16.0015 1.9993C16.0015 1.96916 16.0109 1.93977 16.0284 1.91522C16.0458 1.89067 16.0705 1.87217 16.099 1.8623L16.873 1.6043C17.219 1.4893 17.49 1.2183 17.605 0.872296L17.863 0.0992961V0.0982961Z" fill="#080237"/>
</g>
<defs>
<filter id="filter0_d_143_5" x="0" y="0" width="23.9985" height="23.9993" filterUnits="userSpaceOnUse" color-interpolation-filters="sRGB">
<feFlood flood-opacity="0" result="BackgroundImageFix"/>
<feColorMatrix in="SourceAlpha" type="matrix" values="0 0 0 0 0 0 0 0 0 0 0 0 0 0 0 0 0 0 127 0" result="hardAlpha"/>
<feOffset dy="4"/>
<feGaussianBlur stdDeviation="2"/>
<feComposite in2="hardAlpha" operator="out"/>
<feColorMatrix type="matrix" values="0 0 0 0 0 0 0 0 0 0 0 0 0 0 0 0 0 0 0.25 0"/>
<feBlend mode="normal" in2="BackgroundImageFix" result="effect1_dropShadow_143_5"/>
<feBlend mode="normal" in="SourceGraphic" in2="effect1_dropShadow_143_5" result="shape"/>
</filter>
</defs>
</svg>
