<svg width="24" height="24" viewBox="0 0 24 24" fill="none" xmlns="http://www.w3.org/2000/svg">
<g filter="url(#filter0_d_143_3)">
<path d="M12 3.2C12.2122 3.2 12.4157 3.11571 12.5657 2.96569C12.7157 2.81566 12.8 2.61217 12.8 2.4V0.8C12.8 0.587827 12.7157 0.384344 12.5657 0.234315C12.4157 0.0842854 12.2122 0 12 0C11.7878 0 11.5843 0.0842854 11.4343 0.234315C11.2843 0.384344 11.2 0.587827 11.2 0.8V2.4C11.2 2.61217 11.2843 2.81566 11.4343 2.96569C11.5843 3.11571 11.7878 3.2 12 3.2ZM19.2 7.2H17.6C17.3878 7.2 17.1843 7.28429 17.0343 7.43431C16.8843 7.58434 16.8 7.78783 16.8 8C16.8 8.21217 16.8843 8.41566 17.0343 8.56569C17.1843 8.71571 17.3878 8.8 17.6 8.8H19.2C19.4122 8.8 19.6157 8.71571 19.7657 8.56569C19.9157 8.41566 20 8.21217 20 8C20 7.78783 19.9157 7.58434 19.7657 7.43431C19.6157 7.28429 19.4122 7.2 19.2 7.2ZM7.2 8C7.2 7.78783 7.11571 7.58434 6.96569 7.43431C6.81566 7.28429 6.61217 7.2 6.4 7.2H4.8C4.58783 7.2 4.38434 7.28429 4.23431 7.43431C4.08429 7.58434 4 7.78783 4 8C4 8.21217 4.08429 8.41566 4.23431 8.56569C4.38434 8.71571 4.58783 8.8 4.8 8.8H6.4C6.61217 8.8 6.81566 8.71571 6.96569 8.56569C7.11571 8.41566 7.2 8.21217 7.2 8ZM7.376 2.4C7.22005 2.25254 7.01191 2.17307 6.79737 2.17907C6.58283 2.18507 6.37946 2.27605 6.232 2.432C6.08454 2.58795 6.00507 2.79609 6.01107 3.01063C6.01707 3.22517 6.10805 3.42854 6.264 3.576L7.416 4.688C7.49331 4.76265 7.58486 4.82095 7.6852 4.85944C7.78554 4.89793 7.8926 4.9158 8 4.912C8.10776 4.91159 8.21433 4.88941 8.31331 4.84679C8.41229 4.80418 8.50164 4.742 8.576 4.664C8.725 4.51411 8.80863 4.31135 8.80863 4.1C8.80863 3.88865 8.725 3.68589 8.576 3.536L7.376 2.4ZM16 4.912C16.206 4.91118 16.4037 4.83094 16.552 4.688L17.704 3.576C17.8445 3.42916 17.9239 3.23434 17.926 3.0311C17.9281 2.82785 17.8527 2.63144 17.7153 2.48174C17.5778 2.33203 17.3885 2.24028 17.1858 2.22509C16.9831 2.20991 16.7822 2.27245 16.624 2.4L15.472 3.536C15.323 3.68589 15.2394 3.88865 15.2394 4.1C15.2394 4.31135 15.323 4.51411 15.472 4.664C15.6105 4.81017 15.7991 4.89873 16 4.912ZM12 12.8C11.7878 12.8 11.5843 12.8843 11.4343 13.0343C11.2843 13.1843 11.2 13.3878 11.2 13.6V15.2C11.2 15.4122 11.2843 15.6157 11.4343 15.7657C11.5843 15.9157 11.7878 16 12 16C12.2122 16 12.4157 15.9157 12.5657 15.7657C12.7157 15.6157 12.8 15.4122 12.8 15.2V13.6C12.8 13.3878 12.7157 13.1843 12.5657 13.0343C12.4157 12.8843 12.2122 12.8 12 12.8ZM16.584 11.312C16.4312 11.1645 16.2261 11.0838 16.0139 11.0876C15.8016 11.0913 15.5995 11.1792 15.452 11.332C15.3045 11.4848 15.2238 11.6899 15.2276 11.9021C15.2313 12.1144 15.3192 12.3165 15.472 12.464L16.624 13.6C16.7723 13.7429 16.97 13.8232 17.176 13.824C17.2832 13.8246 17.3894 13.8037 17.4884 13.7625C17.5873 13.7212 17.677 13.6606 17.752 13.584C17.827 13.5096 17.8865 13.4211 17.9271 13.3237C17.9677 13.2262 17.9886 13.1216 17.9886 13.016C17.9886 12.9104 17.9677 12.8058 17.9271 12.7083C17.8865 12.6109 17.827 12.5224 17.752 12.448L16.584 11.312ZM7.416 11.312L6.264 12.424C6.18902 12.4984 6.1295 12.5869 6.08889 12.6843C6.04827 12.7818 6.02736 12.8864 6.02736 12.992C6.02736 13.0976 6.04827 13.2022 6.08889 13.2997C6.1295 13.3971 6.18902 13.4856 6.264 13.56C6.33903 13.6366 6.42869 13.6972 6.52764 13.7385C6.62658 13.7797 6.73281 13.8006 6.84 13.8C7.03721 13.8017 7.22809 13.7305 7.376 13.6L8.528 12.488C8.68076 12.3405 8.76869 12.1384 8.77244 11.9261C8.7762 11.7139 8.69546 11.5088 8.548 11.356C8.40054 11.2032 8.19843 11.1153 7.98614 11.1116C7.77385 11.1078 7.56876 11.1885 7.416 11.336V11.312ZM12 4.8C11.3671 4.8 10.7484 4.98768 10.2222 5.3393C9.69594 5.69092 9.28579 6.19069 9.04359 6.77541C8.80138 7.36014 8.73801 8.00355 8.86149 8.62429C8.98496 9.24503 9.28973 9.81521 9.73726 10.2627C10.1848 10.7103 10.755 11.015 11.3757 11.1385C11.9965 11.262 12.6399 11.1986 13.2246 10.9564C13.8093 10.7142 14.3091 10.3041 14.6607 9.77782C15.0123 9.25159 15.2 8.6329 15.2 8C15.2 7.15131 14.8629 6.33737 14.2627 5.73726C13.6626 5.13714 12.8487 4.8 12 4.8V4.8Z" fill="#FFCF32"/>
</g>
<defs>
<filter id="filter0_d_143_3" x="0" y="0" width="24" height="24" filterUnits="userSpaceOnUse" color-interpolation-filters="sRGB">
<feFlood flood-opacity="0" result="BackgroundImageFix"/>
<feColorMatrix in="SourceAlpha" type="matrix" values="0 0 0 0 0 0 0 0 0 0 0 0 0 0 0 0 0 0 127 0" result="hardAlpha"/>
<feOffset dy="4"/>
<feGaussianBlur stdDeviation="2"/>
<feComposite in2="hardAlpha" operator="out"/>
<feColorMatrix type="matrix" values="0 0 0 0 0 0 0 0 0 0 0 0 0 0 0 0 0 0 0.25 0"/>
<feBlend mode="normal" in2="BackgroundImageFix" result="effect1_dropShadow_143_3"/>
<feBlend mode="normal" in="SourceGraphic" in2="effect1_dropShadow_143_3" result="shape"/>
</filter>
</defs>
</svg>
